{
  "accessors": [
    {
      "bufferView": 0,
      "byteOffset": 0,
      "componentType": 5126,
      "count": 36,
      "type": "VEC3",
      "max": [0.5, 0.5, 0.5],
      "min": [-0.5, -0.5, -0.5]
    },
    {
      "bufferView": 1,
      "byteOffset": 0,
      "componentType": 5126,
      "count": 36,
      "type": "VEC3",
      "max": [1.0, 1.0, 1.0],
      "min": [-1.0, -1.0, -1.0]
    }
  ],
  "asset": { "version": "2.0" },
  "buffers": [{ "uri": "geometry.bin", "byteLength": 864 }],
  "bufferViews": [
    { "buffer": 0, "byteOffset": 0, "byteLength": 432, "target": 34962 },
    { "buffer": 0, "byteOffset": 432, "byteLength": 432, "target": 34962 }
  ],
  "images": [
    {
      "uri": "UVChecker_1K.png",
      "mimeType": "image/png"
    }
  ],
  "materials": [
    {
      "name": "usd_preview_surface",
      "pbrMetallicRoughness": {
        "baseColorFactor": [1, 1, 1, 1],
        "baseColorTexture": { "extensions": {}, "index": 0, "texCoord": 0 },
        "metallicFactor": 0.0
      },
      "emissiveFactor": [0, 0, 0],
      "doubleSided": false
    }
  ],
  "meshes": [
    {
      "name": "mesh_0",
      "primitives": [
        { "attributes": { "POSITION": 0, "NORMAL": 1 }, "material": 0 }
      ]
    }
  ],
  "nodes": [
    { "name": "box_uv1", "children": [1] },
    { "name": "mesh_0", "mesh": 0 }
  ],
  "samplers": [
    { "magFilter": 9729, "minFilter": 9729, "wrapS": 10497, "wrapT": 10497 }
  ],
  "scenes": [{ "nodes": [0] }],
  "textures": [{ "sampler": 0, "source": 0 }]
}
