{
  "accessors": [
    {
      "bufferView": 0,
      "byteOffset": 0,
      "componentType": 5126,
      "count": 8,
      "type": "VEC3",
      "max": [0.5, 0.5, 0.5],
      "min": [-0.5, -0.5, -0.5]
    },
    {
      "bufferView": 1,
      "byteOffset": 0,
      "componentType": 5123,
      "count": 36,
      "type": "SCALAR",
      "max": [7],
      "min": [0]
    }
  ],
  "asset": { "version": "2.0" },
  "buffers": [{ "uri": "geometry.bin", "byteLength": 168 }],
  "bufferViews": [
    { "buffer": 0, "byteOffset": 0, "byteLength": 96, "target": 34962 },
    { "buffer": 0, "byteOffset": 96, "byteLength": 72, "target": 34963 }
  ],
  "meshes": [
    {
      "name": "mesh_0",
      "primitives": [{ "attributes": { "POSITION": 0 }, "indices": 1 }]
    }
  ],
  "nodes": [
    {
      "name": "root",
      "children": [1],
      "matrix": [
        0.8123093558745869, 0.0, -0.5832268086761905, 0.0, 0.0, 1.0, 0.0, 0.0,
        0.5832268086761905, 0.0, 0.8123093558745869, 0.0, 0.0, 0.0, 0.0, 1.0
      ]
    },
    { "name": "box", "children": [2] },
    { "name": "mesh_0", "mesh": 0 }
  ],
  "scenes": [{ "nodes": [0] }]
}
