{
  "accessors": [
    {
      "bufferView": 0,
      "byteOffset": 0,
      "componentType": 5126,
      "count": 36,
      "type": "VEC3",
      "max": [0.5, 0.5, 0.5],
      "min": [-0.5, -0.5, -0.5]
    },
    {
      "bufferView": 1,
      "byteOffset": 0,
      "componentType": 5126,
      "count": 36,
      "type": "VEC3",
      "max": [1.0, 1.0, 1.0],
      "min": [-1.0, -1.0, -1.0]
    }
  ],
  "asset": { "version": "2.0" },
  "buffers": [{ "uri": "geometry.bin", "byteLength": 864 }],
  "bufferViews": [
    { "buffer": 0, "byteOffset": 0, "byteLength": 432, "target": 34962 },
    { "buffer": 0, "byteOffset": 432, "byteLength": 432, "target": 34962 }
  ],
  "meshes": [
    {
      "name": "mesh_0",
      "primitives": [{ "attributes": { "POSITION": 0, "NORMAL": 1 } }]
    }
  ],
  "nodes": [
    {
      "name": "box_vertex_normals",
      "children": [1]
    },
    { "name": "mesh_0", "mesh": 0 }
  ],
  "scenes": [{ "nodes": [0] }]
}
