{
  "accessors": [
    {
      "bufferView": 0,
      "componentType": 5125,
      "count": 36,
      "type": "SCALAR",
      "max": [35],
      "min": [0]
    },
    {
      "bufferView": 1,
      "componentType": 5126,
      "count": 36,
      "type": "VEC3",
      "max": [0.5, 0.5, 0.5],
      "min": [-0.5, -0.5, -0.5]
    },
    {
      "bufferView": 2,
      "componentType": 5126,
      "count": 36,
      "type": "VEC3",
      "max": [0.5773503184318542, 0.5773503184318542, 0.5773503184318542],
      "min": [-0.5773503184318542, -0.5773503184318542, -0.5773503184318542]
    }
  ],
  "asset": { "version": "2.0" },
  "buffers": [{ "uri": "box_normals_vertex_geometry.bin", "byteLength": 1008 }],
  "bufferViews": [
    { "buffer": 0, "byteOffset": 0, "byteLength": 144, "target": 34963 },
    { "buffer": 0, "byteOffset": 144, "byteLength": 432, "target": 34962 },
    { "buffer": 0, "byteOffset": 576, "byteLength": 432, "target": 34962 }
  ],
  "meshes": [
    {
      "name": "mesh_0",
      "primitives": [
        { "attributes": { "POSITION": 1, "NORMAL": 2 }, "indices": 0 }
      ]
    }
  ],
  "nodes": [
    { "name": "box_normals_vertex", "children": [1] },
    { "name": "mesh_0", "mesh": 0 }
  ],
  "scenes": [{ "nodes": [0] }]
}
