{
  "accessors": [
    {
      "name": "box_animation_accessor_times",
      "bufferView": 0,
      "byteOffset": 0,
      "componentType": 5126,
      "count": 120,
      "type": "SCALAR",
      "max": [5.0],
      "min": [0.041666666666666664]
    },
    {
      "name": "box_animation_accessor_positions",
      "bufferView": 0,
      "byteOffset": 480,
      "componentType": 5126,
      "count": 120,
      "type": "VEC3",
      "max": [5.551115123125783e-17, 1.0000000000000004, 1.0],
      "min": [-8.128559802096681e-17, 0.0, -1.0]
    },
    {
      "name": "box_animation_accessor_rotations",
      "bufferView": 0,
      "byteOffset": 1920,
      "componentType": 5126,
      "count": 120,
      "type": "VEC4",
      "max": [0.7071068286895752, 1.0, 0.27059805393218994, 1.0],
      "min": [
        -0.7071068286895752, -0.7696356773376465, -0.2712480127811432,
        -0.5736743211746216
      ]
    },
    {
      "name": "box_animation_accessor_scales",
      "bufferView": 0,
      "byteOffset": 3840,
      "componentType": 5126,
      "count": 120,
      "type": "VEC3",
      "max": [1.5, 1.7000000476837158, 2.0],
      "min": [1.0, 1.0, 1.0]
    },
    {
      "bufferView": 1,
      "componentType": 5125,
      "count": 36,
      "type": "SCALAR",
      "max": [35],
      "min": [0]
    },
    {
      "bufferView": 2,
      "componentType": 5126,
      "count": 36,
      "type": "VEC3",
      "max": [0.5, 0.5, 0.5],
      "min": [-0.5, -0.5, -0.5]
    }
  ],
  "animations": [
    {
      "name": "main_animation",
      "channels": [
        { "sampler": 0, "target": { "node": 0, "path": "translation" } },
        { "sampler": 1, "target": { "node": 0, "path": "rotation" } },
        { "sampler": 2, "target": { "node": 0, "path": "scale" } }
      ],
      "samplers": [
        { "input": 0, "interpolation": "LINEAR", "output": 1 },
        { "input": 0, "interpolation": "LINEAR", "output": 2 },
        { "input": 0, "interpolation": "LINEAR", "output": 3 }
      ]
    }
  ],
  "asset": { "version": "2.0" },
  "buffers": [
    { "uri": "box_animation_geometry.bin", "byteLength": 576 },
    { "uri": "box_animation_animation.bin", "byteLength": 5280 }
  ],
  "bufferViews": [
    { "buffer": 1, "byteOffset": 0, "byteLength": 5280 },
    { "buffer": 0, "byteOffset": 0, "byteLength": 144, "target": 34963 },
    { "buffer": 0, "byteOffset": 144, "byteLength": 432, "target": 34962 }
  ],
  "meshes": [
    {
      "name": "mesh_0",
      "primitives": [{ "attributes": { "POSITION": 5 }, "indices": 4 }]
    }
  ],
  "nodes": [
    {
      "name": "box_animation",
      "children": [1],
      "rotation": [0.0, 0.0, 0.0, 1.0],
      "scale": [1.0, 1.0, 1.0],
      "translation": [0.0, 0.0, 0.0]
    },
    { "name": "mesh_0", "mesh": 0 }
  ],
  "scenes": [{ "nodes": [0] }]
}
