{"accessors": [{"name": "character_accessor_times", "bufferView": 0, "byteOffset": 0, "componentType": 5126, "count": 24, "type": "SCALAR", "max": [1.0], "min": [0.041666666666666664]}, {"name": "character_accessor_positions", "bufferView": 0, "byteOffset": 96, "componentType": 5126, "count": 24, "type": "VEC3", "max": [0.0, 0.0, 0.0], "min": [0.0, 0.0, 0.0]}, {"name": "character_accessor_rotations", "bufferView": 0, "byteOffset": 384, "componentType": 5126, "count": 24, "type": "VEC4", "max": [0.0, 0.0, 0.0, 1.0], "min": [0.0, 0.0, 0.0, 1.0]}, {"name": "character_accessor_scales", "bufferView": 0, "byteOffset": 768, "componentType": 5126, "count": 24, "type": "VEC3", "max": [1.0, 1.0, 1.0], "min": [1.0, 1.0, 1.0]}, {"bufferView": 1, "componentType": 5125, "count": 12, "type": "SCALAR", "max": [11], "min": [0]}, {"bufferView": 2, "componentType": 5126, "count": 12, "type": "VEC3", "max": [0.25, 0.5, 0.0], "min": [-0.25, -0.5, 0.0]}, {"bufferView": 3, "byteOffset": 0, "componentType": 5126, "count": 3, "type": "MAT4", "max": [1.0, 0.002809739438816905, 0.0, 0.0, 0.012628589756786823, 1.0, 0.6881299614906311, 0.0, 0.9994580149650574, 0.0, 1.0, 0.0, 0.007408407051116228, 0.038299333304166794, 0.010806195437908173, 1.0], "min": [-0.03039911948144436, -0.9995319843292236, -0.0070456950925290585, 0.0, 0.0, 0.0030533757526427507, -0.999915599822998, 0.0, 0.0, -0.6881299614906311, 0.012529839761555195, 0.0, -0.038456834852695465, -0.49971407651901245, -0.4978884756565094, 1.0]}, {"bufferView": 0, "byteOffset": 0, "componentType": 5126, "count": 24, "type": "SCALAR", "max": [1.0], "min": [0.041666666666666664]}, {"bufferView": 4, "byteOffset": 0, "componentType": 5126, "count": 24, "type": "VEC3", "max": [0.03679580241441727, -0.4758986234664917, 0.1459982842206955], "min": [0.03679580241441727, -0.49805697798728943, -0.14690560102462769]}, {"bufferView": 4, "byteOffset": 288, "componentType": 5126, "count": 24, "type": "VEC4", "max": [0.5569256544113159, 0.5052036046981812, 0.4926876127719879, 0.47966906428337097], "min": [-0.4883691370487213, -0.5755985975265503, -0.5791143178939819, -0.5631802082061768]}, {"bufferView": 4, "byteOffset": 672, "componentType": 5126, "count": 24, "type": "VEC3", "max": [1.0, 1.0, 1.0], "min": [1.0, 1.0, 1.0]}, {"bufferView": 5, "byteOffset": 0, "componentType": 5126, "count": 24, "type": "VEC3", "max": [2.468004822731018e-08, 0.14542102813720703, -0.475057452917099], "min": [-2.9802322387695312e-08, -0.1467893123626709, -0.4972124993801117]}, {"bufferView": 5, "byteOffset": 288, "componentType": 5126, "count": 24, "type": "VEC4", "max": [0.6743225455284119, -0.6064042448997498, 0.3793867528438568, -0.1833810955286026], "min": [0.5906676650047302, -0.6911143064498901, 0.18444912135601044, -0.3734317421913147]}, {"bufferView": 5, "byteOffset": 672, "componentType": 5126, "count": 24, "type": "VEC3", "max": [1.0, 1.0, 1.0], "min": [1.0, 1.0, 1.0]}, {"bufferView": 6, "byteOffset": 0, "componentType": 5126, "count": 24, "type": "VEC3", "max": [-0.0037510544061660767, 0.45082148909568787, 0.4329032003879547], "min": [-0.003751099109649658, 0.2514403462409973, 0.21768656373023987]}, {"bufferView": 6, "byteOffset": 288, "componentType": 5126, "count": 24, "type": "VEC4", "max": [0.5027984976768494, 0.0037923124618828297, 0.0005569364293478429, 0.9737817645072937], "min": [0.22745266556739807, 0.003750097705051303, -0.0005667892401106656, 0.8643953204154968]}, {"bufferView": 6, "byteOffset": 672, "componentType": 5126, "count": 24, "type": "VEC3", "max": [1.0, 1.0, 1.0], "min": [1.0, 1.0, 1.0]}, {"bufferView": 7, "byteOffset": 0, "componentType": 5123, "count": 12, "type": "VEC4", "max": [2, 1, 2, 0], "min": [0, 0, 0, 0]}, {"bufferView": 8, "byteOffset": 0, "componentType": 5126, "count": 12, "type": "VEC4", "max": [0.8023043870925903, 0.45338910818099976, 0.11410617083311081, 0.0], "min": [0.4640512764453888, 0.19490818679332733, 0.0027224610093981028, 0.0]}], "animations": [{"extras": {}, "name": "main_animation", "channels": [{"sampler": 0, "target": {"node": 1, "path": "translation"}}, {"sampler": 1, "target": {"node": 1, "path": "rotation"}}, {"sampler": 2, "target": {"node": 1, "path": "scale"}}, {"sampler": 3, "target": {"node": 5, "path": "translation"}}, {"sampler": 4, "target": {"node": 5, "path": "rotation"}}, {"sampler": 5, "target": {"node": 5, "path": "scale"}}, {"sampler": 6, "target": {"node": 6, "path": "translation"}}, {"sampler": 7, "target": {"node": 6, "path": "rotation"}}, {"sampler": 8, "target": {"node": 6, "path": "scale"}}, {"sampler": 9, "target": {"node": 7, "path": "translation"}}, {"sampler": 10, "target": {"node": 7, "path": "rotation"}}, {"sampler": 11, "target": {"node": 7, "path": "scale"}}], "samplers": [{"input": 0, "interpolation": "LINEAR", "output": 1}, {"input": 0, "interpolation": "LINEAR", "output": 2}, {"input": 0, "interpolation": "LINEAR", "output": 3}, {"input": 7, "interpolation": "LINEAR", "output": 8}, {"input": 7, "interpolation": "LINEAR", "output": 9}, {"input": 7, "interpolation": "LINEAR", "output": 10}, {"input": 7, "interpolation": "LINEAR", "output": 11}, {"input": 7, "interpolation": "LINEAR", "output": 12}, {"input": 7, "interpolation": "LINEAR", "output": 13}, {"input": 7, "interpolation": "LINEAR", "output": 14}, {"input": 7, "interpolation": "LINEAR", "output": 15}, {"input": 7, "interpolation": "LINEAR", "output": 16}]}], "asset": {"version": "2.0"}, "buffers": [{"uri": "skinned_tube_geometry.bin", "byteLength": 480}, {"uri": "skinned_tube_animation.bin", "byteLength": 4128}, {"uri": "skinned_tube_bindTransforms.bin", "byteLength": 192}], "bufferViews": [{"buffer": 1, "byteOffset": 0, "byteLength": 1248}, {"buffer": 0, "byteOffset": 0, "byteLength": 48, "target": 34963}, {"buffer": 0, "byteOffset": 48, "byteLength": 144, "target": 34962}, {"buffer": 2, "byteOffset": 0, "byteLength": 192}, {"buffer": 1, "byteOffset": 1248, "byteLength": 960}, {"buffer": 1, "byteOffset": 2208, "byteLength": 960}, {"buffer": 1, "byteOffset": 3168, "byteLength": 960}, {"buffer": 0, "byteOffset": 192, "byteLength": 96, "target": 34962}, {"buffer": 0, "byteOffset": 288, "byteLength": 192, "target": 34962}], "meshes": [{"name": "geometry", "primitives": [{"attributes": {"POSITION": 5, "JOINTS_0": 17, "WEIGHTS_0": 18}, "indices": 4}]}], "nodes": [{"name": "Geometry", "children": [1]}, {"name": "character", "children": [2, 4], "rotation": [0.0, 0.0, 0.0, 1.0], "scale": [1.0, 1.0, 1.0], "translation": [0.0, 0.0, 0.0]}, {"name": "geometry", "skin": 0, "mesh": 0}, {"name": "skeleton"}, {"name": "skeleton_root", "children": [5]}, {"name": "skeleton_joint_point_0", "children": [6], "rotation": [-0.4883691370487213, 0.5052036046981812, -0.5098714232444763, -0.4962821900844574], "scale": [1.0, 1.0, 1.0], "translation": [0.03679580241441727, -0.49805697798728943, -8.940696716308594e-08]}, {"name": "skeleton_joint_point_1", "children": [7], "rotation": [0.6332787275314331, -0.662122368812561, 0.2706555128097534, -0.29546165466308594], "scale": [1.0, 1.0, 1.0], "translation": [5.587935447692871e-09, 0.02104397676885128, -0.49677345156669617]}, {"name": "skeleton_joint_point_2", "rotation": [0.3311728537082672, 0.003789337119087577, -0.00015891627117525786, 0.9435625076293945], "scale": [1.0, 1.0, 1.0], "translation": [-0.003751085139811039, 0.3936367332935333, 0.3093179762363434]}], "scenes": [{"nodes": [0]}], "skins": [{"name": "skeleton_skin", "inverseBindMatrices": 6, "skeleton": 4, "joints": [5, 6, 7]}]}