{
  "accessors": [
    {
      "bufferView": 0,
      "componentType": 5125,
      "count": 6,
      "type": "SCALAR",
      "max": [5],
      "min": [0]
    },
    {
      "bufferView": 1,
      "componentType": 5126,
      "count": 6,
      "type": "VEC3",
      "max": [0.5, 0.5, 0.5],
      "min": [-0.5, 0.5, -0.5]
    },
    {
      "bufferView": 2,
      "componentType": 5125,
      "count": 30,
      "type": "SCALAR",
      "max": [29],
      "min": [0]
    },
    {
      "bufferView": 3,
      "componentType": 5126,
      "count": 30,
      "type": "VEC3",
      "max": [0.5, 0.5, 0.5],
      "min": [-0.5, -0.5, -0.5]
    }
  ],
  "asset": { "version": "2.0" },
  "buffers": [{ "uri": "box_subset_geometry.bin", "byteLength": 576 }],
  "bufferViews": [
    { "buffer": 0, "byteOffset": 0, "byteLength": 24, "target": 34963 },
    { "buffer": 0, "byteOffset": 24, "byteLength": 72, "target": 34962 },
    { "buffer": 0, "byteOffset": 96, "byteLength": 120, "target": 34963 },
    { "buffer": 0, "byteOffset": 216, "byteLength": 360, "target": 34962 }
  ],
  "meshes": [
    {
      "name": "mesh_0",
      "primitives": [
        { "attributes": { "POSITION": 1 }, "indices": 0 },
        { "attributes": { "POSITION": 3 }, "indices": 2 }
      ]
    }
  ],
  "nodes": [
    { "name": "box2", "children": [1] },
    { "name": "mesh_0", "mesh": 0 }
  ],
  "scenes": [{ "nodes": [0] }]
}
