{
  "accessors": [
    {
      "bufferView": 0,
      "byteOffset": 0,
      "componentType": 5126,
      "count": 8,
      "type": "VEC3",
      "max": [0.5, 0.5, 0.5],
      "min": [-0.5, -0.5, -0.5]
    },
    {
      "bufferView": 1,
      "byteOffset": 0,
      "componentType": 5123,
      "count": 6,
      "type": "SCALAR",
      "max": [7],
      "min": [2]
    },
    {
      "bufferView": 2,
      "byteOffset": 0,
      "componentType": 5126,
      "count": 8,
      "type": "VEC3",
      "max": [0.5, 0.5, 0.5],
      "min": [-0.5, -0.5, -0.5]
    },
    {
      "bufferView": 3,
      "byteOffset": 0,
      "componentType": 5123,
      "count": 30,
      "type": "SCALAR",
      "max": [7],
      "min": [0]
    }
  ],
  "asset": { "version": "2.0" },
  "buffers": [{ "uri": "geometry.bin", "byteLength": 264 }],
  "bufferViews": [
    { "buffer": 0, "byteOffset": 0, "byteLength": 96, "target": 34962 },
    { "buffer": 0, "byteOffset": 96, "byteLength": 12, "target": 34963 },
    { "buffer": 0, "byteOffset": 108, "byteLength": 96, "target": 34962 },
    { "buffer": 0, "byteOffset": 204, "byteLength": 60, "target": 34963 }
  ],
  "meshes": [
    {
      "name": "mesh_0",
      "primitives": [
        { "attributes": { "POSITION": 0 }, "indices": 1 },
        { "attributes": { "POSITION": 2 }, "indices": 3 }
      ]
    }
  ],
  "nodes": [
    { "name": "box2", "children": [1] },
    { "name": "mesh_0", "mesh": 0 }
  ],
  "scenes": [{ "nodes": [0] }]
}
