{"accessors": [{"name": "character_accessor_times", "bufferView": 0, "byteOffset": 0, "componentType": 5126, "count": 49, "type": "SCALAR", "max": [2.0833333333333335], "min": [0.041666666666666664]}, {"name": "character_accessor_positions", "bufferView": 0, "byteOffset": 196, "componentType": 5126, "count": 49, "type": "VEC3", "max": [0.0, 0.0, 0.0], "min": [0.0, 0.0, 0.0]}, {"name": "character_accessor_rotations", "bufferView": 0, "byteOffset": 784, "componentType": 5126, "count": 49, "type": "VEC4", "max": [0.0, 0.0, 0.0, 1.0], "min": [0.0, 0.0, 0.0, 1.0]}, {"name": "character_accessor_scales", "bufferView": 0, "byteOffset": 1568, "componentType": 5126, "count": 49, "type": "VEC3", "max": [1.0, 1.0, 1.0], "min": [1.0, 1.0, 1.0]}, {"bufferView": 1, "componentType": 5125, "count": 36, "type": "SCALAR", "max": [35], "min": [0]}, {"bufferView": 2, "componentType": 5126, "count": 36, "type": "VEC3", "max": [0.51878821849823, 0.4943717122077942, 0.2516302764415741], "min": [-3.0982846510596573e-08, -1.7370524574289448e-08, -0.18240977823734283]}, {"bufferView": 3, "componentType": 5126, "count": 36, "type": "VEC3", "max": [1.0, 1.0, 1.0], "min": [-1.0, -1.0, -1.0]}, {"bufferView": 4, "componentType": 5125, "count": 36, "type": "SCALAR", "max": [35], "min": [0]}, {"bufferView": 5, "componentType": 5126, "count": 36, "type": "VEC3", "max": [1.475086719437968e-11, 0.4943717122077942, 0.2516302764415741], "min": [-0.5213186144828796, -1.7370524574289448e-08, -0.18240977823734283]}, {"bufferView": 6, "componentType": 5126, "count": 36, "type": "VEC3", "max": [1.0, 1.0, 1.0], "min": [-1.0, -1.0, -1.0]}, {"bufferView": 7, "componentType": 5125, "count": 36, "type": "SCALAR", "max": [35], "min": [0]}, {"bufferView": 8, "componentType": 5126, "count": 36, "type": "VEC3", "max": [0.51878821849823, 1.2097043367020888e-08, 0.2516302764415741], "min": [-3.0982846510596573e-08, -0.49439579248428345, -0.18240977823734283]}, {"bufferView": 9, "componentType": 5126, "count": 36, "type": "VEC3", "max": [1.0, 1.0, 1.0], "min": [-1.0, -1.0, -1.0]}, {"bufferView": 10, "componentType": 5125, "count": 36, "type": "SCALAR", "max": [35], "min": [0]}, {"bufferView": 11, "componentType": 5126, "count": 36, "type": "VEC3", "max": [1.475086719437968e-11, 1.2097043367020888e-08, 0.2516302764415741], "min": [-0.5213186144828796, -0.49439579248428345, -0.18240977823734283]}, {"bufferView": 12, "componentType": 5126, "count": 36, "type": "VEC3", "max": [1.0, 1.0, 1.0], "min": [-1.0, -1.0, -1.0]}, {"bufferView": 13, "byteOffset": 0, "componentType": 5126, "count": 5, "type": "MAT4", "max": [1.0, 0.0, 0.0, 0.0, 0.0, 1.0, 0.0, 0.0, 0.0, 0.0, 1.0, -0.0, 0.2606593072414398, 0.24719789624214172, 0.0, 1.0], "min": [1.0, 0.0, 0.0, 0.0, 0.0, 1.0, 0.0, 0.0, 0.0, 0.0, 1.0, -0.0, -0.2593940794467926, -0.2471858412027359, -0.03461024910211563, 1.0]}, {"bufferView": 0, "byteOffset": 0, "componentType": 5126, "count": 49, "type": "SCALAR", "max": [2.0833333333333335], "min": [0.041666666666666664]}, {"bufferView": 14, "byteOffset": 0, "componentType": 5126, "count": 49, "type": "VEC3", "max": [0.0, 0.0, 0.0], "min": [0.0, 0.0, 0.0]}, {"bufferView": 14, "byteOffset": 588, "componentType": 5126, "count": 49, "type": "VEC4", "max": [0.0, 0.0, 0.0, 1.0], "min": [0.0, 0.0, 0.0, 1.0]}, {"bufferView": 14, "byteOffset": 1372, "componentType": 5126, "count": 49, "type": "VEC3", "max": [1.0, 1.0, 1.0], "min": [1.0, 1.0, 1.0]}, {"bufferView": 15, "byteOffset": 0, "componentType": 5126, "count": 49, "type": "VEC3", "max": [-0.2606593072414398, -0.24719789624214172, 0.03461024910211563], "min": [-0.2606593072414398, -1.5971977710723877, 0.03461024910211563]}, {"bufferView": 15, "byteOffset": 588, "componentType": 5126, "count": 49, "type": "VEC4", "max": [0.4738328754901886, 0.0, 0.0, 1.0], "min": [-0.9981868863105774, 0.0, 0.0, -0.6665133237838745]}, {"bufferView": 15, "byteOffset": 1372, "componentType": 5126, "count": 49, "type": "VEC3", "max": [1.0, 1.0, 1.0], "min": [1.0, 1.0, 1.0]}, {"bufferView": 16, "byteOffset": 0, "componentType": 5126, "count": 49, "type": "VEC3", "max": [0.2593940794467926, -0.24719789624214172, 0.03461024910211563], "min": [0.2593940794467926, -1.5971977710723877, 0.03461024910211563]}, {"bufferView": 16, "byteOffset": 588, "componentType": 5126, "count": 49, "type": "VEC4", "max": [0.4738328754901886, 0.0, 0.0, 1.0], "min": [-0.9981868863105774, 0.0, 0.0, -0.6665133237838745]}, {"bufferView": 16, "byteOffset": 1372, "componentType": 5126, "count": 49, "type": "VEC3", "max": [1.0, 1.0, 1.0], "min": [1.0, 1.0, 1.0]}, {"bufferView": 17, "byteOffset": 0, "componentType": 5126, "count": 49, "type": "VEC3", "max": [-0.2606593072414398, 0.2471858412027359, 0.03461024910211563], "min": [-0.2606593072414398, -1.1028140783309937, 0.03461024910211563]}, {"bufferView": 17, "byteOffset": 588, "componentType": 5126, "count": 49, "type": "VEC4", "max": [0.4738326370716095, 0.0, 0.0, 1.0], "min": [-0.9981868863105774, 0.0, 0.0, -0.6665129661560059]}, {"bufferView": 17, "byteOffset": 1372, "componentType": 5126, "count": 49, "type": "VEC3", "max": [1.0, 1.0, 1.0], "min": [1.0, 1.0, 1.0]}, {"bufferView": 18, "byteOffset": 0, "componentType": 5126, "count": 49, "type": "VEC3", "max": [0.2593940794467926, 0.2471858412027359, 0.03461024910211563], "min": [0.2593940794467926, -1.1028140783309937, 0.03461024910211563]}, {"bufferView": 18, "byteOffset": 588, "componentType": 5126, "count": 49, "type": "VEC4", "max": [0.4738328754901886, 0.0, 0.0, 1.0], "min": [-0.9981868863105774, 0.0, 0.0, -0.6665133237838745]}, {"bufferView": 18, "byteOffset": 1372, "componentType": 5126, "count": 49, "type": "VEC3", "max": [1.0, 1.0, 1.0], "min": [1.0, 1.0, 1.0]}, {"bufferView": 19, "byteOffset": 0, "componentType": 5123, "count": 36, "type": "VEC4", "max": [4, 0, 0, 0], "min": [4, 0, 0, 0]}, {"bufferView": 20, "byteOffset": 0, "componentType": 5126, "count": 36, "type": "VEC4", "max": [1.0, 0.0, 0.0, 0.0], "min": [1.0, 0.0, 0.0, 0.0]}, {"bufferView": 21, "byteOffset": 0, "componentType": 5123, "count": 36, "type": "VEC4", "max": [3, 0, 0, 0], "min": [3, 0, 0, 0]}, {"bufferView": 22, "byteOffset": 0, "componentType": 5126, "count": 36, "type": "VEC4", "max": [1.0, 0.0, 0.0, 0.0], "min": [1.0, 0.0, 0.0, 0.0]}, {"bufferView": 23, "byteOffset": 0, "componentType": 5123, "count": 36, "type": "VEC4", "max": [2, 0, 0, 0], "min": [2, 0, 0, 0]}, {"bufferView": 24, "byteOffset": 0, "componentType": 5126, "count": 36, "type": "VEC4", "max": [1.0, 0.0, 0.0, 0.0], "min": [1.0, 0.0, 0.0, 0.0]}, {"bufferView": 25, "byteOffset": 0, "componentType": 5123, "count": 36, "type": "VEC4", "max": [1, 0, 0, 0], "min": [1, 0, 0, 0]}, {"bufferView": 26, "byteOffset": 0, "componentType": 5126, "count": 36, "type": "VEC4", "max": [1.0, 0.0, 0.0, 0.0], "min": [1.0, 0.0, 0.0, 0.0]}], "animations": [{"extras": {}, "name": "main_animation", "channels": [{"sampler": 0, "target": {"node": 1, "path": "translation"}}, {"sampler": 1, "target": {"node": 1, "path": "rotation"}}, {"sampler": 2, "target": {"node": 1, "path": "scale"}}, {"sampler": 3, "target": {"node": 8, "path": "translation"}}, {"sampler": 4, "target": {"node": 8, "path": "rotation"}}, {"sampler": 5, "target": {"node": 8, "path": "scale"}}, {"sampler": 6, "target": {"node": 9, "path": "translation"}}, {"sampler": 7, "target": {"node": 9, "path": "rotation"}}, {"sampler": 8, "target": {"node": 9, "path": "scale"}}, {"sampler": 9, "target": {"node": 10, "path": "translation"}}, {"sampler": 10, "target": {"node": 10, "path": "rotation"}}, {"sampler": 11, "target": {"node": 10, "path": "scale"}}, {"sampler": 12, "target": {"node": 11, "path": "translation"}}, {"sampler": 13, "target": {"node": 11, "path": "rotation"}}, {"sampler": 14, "target": {"node": 11, "path": "scale"}}, {"sampler": 15, "target": {"node": 12, "path": "translation"}}, {"sampler": 16, "target": {"node": 12, "path": "rotation"}}, {"sampler": 17, "target": {"node": 12, "path": "scale"}}], "samplers": [{"input": 0, "interpolation": "LINEAR", "output": 1}, {"input": 0, "interpolation": "LINEAR", "output": 2}, {"input": 0, "interpolation": "LINEAR", "output": 3}, {"input": 17, "interpolation": "LINEAR", "output": 18}, {"input": 17, "interpolation": "LINEAR", "output": 19}, {"input": 17, "interpolation": "LINEAR", "output": 20}, {"input": 17, "interpolation": "LINEAR", "output": 21}, {"input": 17, "interpolation": "LINEAR", "output": 22}, {"input": 17, "interpolation": "LINEAR", "output": 23}, {"input": 17, "interpolation": "LINEAR", "output": 24}, {"input": 17, "interpolation": "LINEAR", "output": 25}, {"input": 17, "interpolation": "LINEAR", "output": 26}, {"input": 17, "interpolation": "LINEAR", "output": 27}, {"input": 17, "interpolation": "LINEAR", "output": 28}, {"input": 17, "interpolation": "LINEAR", "output": 29}, {"input": 17, "interpolation": "LINEAR", "output": 30}, {"input": 17, "interpolation": "LINEAR", "output": 31}, {"input": 17, "interpolation": "LINEAR", "output": 32}]}], "asset": {"version": "2.0"}, "buffers": [{"uri": "skeleton_animation_geometry.bin", "byteLength": 7488}, {"uri": "skeleton_animation_animation.bin", "byteLength": 12348}, {"uri": "skeleton_animation_bindTransforms.bin", "byteLength": 320}], "bufferViews": [{"buffer": 1, "byteOffset": 0, "byteLength": 2548}, {"buffer": 0, "byteOffset": 0, "byteLength": 144, "target": 34963}, {"buffer": 0, "byteOffset": 144, "byteLength": 432, "target": 34962}, {"buffer": 0, "byteOffset": 576, "byteLength": 432, "target": 34962}, {"buffer": 0, "byteOffset": 1008, "byteLength": 144, "target": 34963}, {"buffer": 0, "byteOffset": 1152, "byteLength": 432, "target": 34962}, {"buffer": 0, "byteOffset": 1584, "byteLength": 432, "target": 34962}, {"buffer": 0, "byteOffset": 2016, "byteLength": 144, "target": 34963}, {"buffer": 0, "byteOffset": 2160, "byteLength": 432, "target": 34962}, {"buffer": 0, "byteOffset": 2592, "byteLength": 432, "target": 34962}, {"buffer": 0, "byteOffset": 3024, "byteLength": 144, "target": 34963}, {"buffer": 0, "byteOffset": 3168, "byteLength": 432, "target": 34962}, {"buffer": 0, "byteOffset": 3600, "byteLength": 432, "target": 34962}, {"buffer": 2, "byteOffset": 0, "byteLength": 320}, {"buffer": 1, "byteOffset": 2548, "byteLength": 1960}, {"buffer": 1, "byteOffset": 4508, "byteLength": 1960}, {"buffer": 1, "byteOffset": 6468, "byteLength": 1960}, {"buffer": 1, "byteOffset": 8428, "byteLength": 1960}, {"buffer": 1, "byteOffset": 10388, "byteLength": 1960}, {"buffer": 0, "byteOffset": 4032, "byteLength": 288, "target": 34962}, {"buffer": 0, "byteOffset": 4320, "byteLength": 576, "target": 34962}, {"buffer": 0, "byteOffset": 4896, "byteLength": 288, "target": 34962}, {"buffer": 0, "byteOffset": 5184, "byteLength": 576, "target": 34962}, {"buffer": 0, "byteOffset": 5760, "byteLength": 288, "target": 34962}, {"buffer": 0, "byteOffset": 6048, "byteLength": 576, "target": 34962}, {"buffer": 0, "byteOffset": 6624, "byteLength": 288, "target": 34962}, {"buffer": 0, "byteOffset": 6912, "byteLength": 576, "target": 34962}], "meshes": [{"name": "piece3", "primitives": [{"attributes": {"POSITION": 5, "NORMAL": 6, "JOINTS_0": 33, "WEIGHTS_0": 34}, "indices": 4}]}, {"name": "piece2", "primitives": [{"attributes": {"POSITION": 8, "NORMAL": 9, "JOINTS_0": 35, "WEIGHTS_0": 36}, "indices": 7}]}, {"name": "piece1", "primitives": [{"attributes": {"POSITION": 11, "NORMAL": 12, "JOINTS_0": 37, "WEIGHTS_0": 38}, "indices": 10}]}, {"name": "piece0", "primitives": [{"attributes": {"POSITION": 14, "NORMAL": 15, "JOINTS_0": 39, "WEIGHTS_0": 40}, "indices": 13}]}], "nodes": [{"name": "Geometry", "children": [1]}, {"name": "character", "children": [2, 3, 4, 5, 7], "rotation": [0.0, 0.0, 0.0, 1.0], "scale": [1.0, 1.0, 1.0], "translation": [0.0, 0.0, 0.0]}, {"name": "piece3", "skin": 0, "mesh": 0}, {"name": "piece2", "skin": 0, "mesh": 1}, {"name": "piece1", "skin": 0, "mesh": 2}, {"name": "piece0", "skin": 0, "mesh": 3}, {"name": "skeleton"}, {"name": "skeleton_root", "children": [8]}, {"name": "skeleton_joint_root", "children": [9, 10, 11, 12], "rotation": [0.0, 0.0, 0.0, 1.0], "scale": [1.0, 1.0, 1.0], "translation": [0.0, 0.0, 0.0]}, {"name": "skeleton_joint_piece0", "rotation": [0.14112000167369843, 0.0, 0.0, 0.9899924993515015], "scale": [1.0, 1.0, 1.0], "translation": [-0.2606593072414398, -1.5971977710723877, 0.03461024910211563]}, {"name": "skeleton_joint_piece1", "rotation": [0.14112000167369843, 0.0, 0.0, 0.9899924993515015], "scale": [1.0, 1.0, 1.0], "translation": [0.2593940794467926, -1.5971977710723877, 0.03461024910211563]}, {"name": "skeleton_joint_piece2", "rotation": [0.14112000167369843, 0.0, 0.0, 0.9899924993515015], "scale": [1.0, 1.0, 1.0], "translation": [-0.2606593072414398, -1.1028140783309937, 0.03461024910211563]}, {"name": "skeleton_joint_piece3", "rotation": [0.14112000167369843, 0.0, 0.0, 0.9899924993515015], "scale": [1.0, 1.0, 1.0], "translation": [0.2593940794467926, -1.1028140783309937, 0.03461024910211563]}], "scenes": [{"nodes": [0]}], "skins": [{"name": "skeleton_skin", "inverseBindMatrices": 16, "skeleton": 7, "joints": [8, 9, 10, 11, 12]}]}